<mxfile host="app.diagrams.net" modified="2023-08-29T17:09:26.825Z" agent="Mozilla/5.0 (Windows NT 10.0; Win64; x64) AppleWebKit/537.36 (KHTML, like Gecko) Chrome/104.0.0.0 Safari/537.36" version="21.7.0" etag="walFyHDU34PgjbbAdnAH" type="github">
  <diagram name="Page-1" id="exBROolep6C97HIJsiUc">
    <mxGraphModel>
      <root>
        <mxCell id="0" />
        <mxCell id="1" parent="0" />
      </root>
    </mxGraphModel>
  </diagram>
</mxfile>
